HIERARCHY
ROOT Hips
{
	OFFSET -0.001795 -0.223333 0.028219
	CHANNELS 6 Xposition Yposition Zposition Zrotation Yrotation Xrotation 
	JOINT LeftUpLeg
	{
		OFFSET 0.069520 -0.091406 -0.006815
		CHANNELS 3 Zrotation Yrotation Xrotation
		JOINT LeftLeg
		{
			OFFSET 0.034277 -0.375199 -0.004496
			CHANNELS 3 Zrotation Yrotation Xrotation
			JOINT LeftFoot
			{
				OFFSET -0.013596 -0.397961 -0.043693
				CHANNELS 3 Zrotation Yrotation Xrotation
				JOINT LeftToe
				{
					OFFSET 0.026358 -0.055791 0.119288
					CHANNELS 3 Zrotation Yrotation Xrotation
					End Site
					{
						OFFSET 0.000000 0.000000 0.000000
					}
				}
			}
		}
	}
	JOINT RightUpLeg
	{
		OFFSET -0.067670 -0.090522 -0.004320
		CHANNELS 3 Zrotation Yrotation Xrotation
		JOINT RightLeg
		{
			OFFSET -0.038290 -0.382569 -0.008850
			CHANNELS 3 Zrotation Yrotation Xrotation
			JOINT RightFoot
			{
				OFFSET 0.015774 -0.398415 -0.042312
				CHANNELS 3 Zrotation Yrotation Xrotation
				JOINT RightToe
				{
					OFFSET -0.025372 -0.048144 0.123348
					CHANNELS 3 Zrotation Yrotation Xrotation
					End Site
					{
						OFFSET 0.000000 0.000000 0.000000
					}
				}
			}
		}
	}
	JOINT Spine
	{
		OFFSET -0.002533 0.108963 -0.026696
		CHANNELS 3 Zrotation Yrotation Xrotation
		JOINT Spine1
		{
			OFFSET 0.005487 0.135180 0.001092
			CHANNELS 3 Zrotation Yrotation Xrotation
			JOINT Spine2
			{
				OFFSET 0.001457 0.052922 0.025425
				CHANNELS 3 Zrotation Yrotation Xrotation
				JOINT Neck
				{
					OFFSET -0.002778 0.213870 -0.042857
					CHANNELS 3 Zrotation Yrotation Xrotation
					JOINT Head
					{
						OFFSET 0.005152 0.064970 0.051349
						CHANNELS 3 Zrotation Yrotation Xrotation
						End Site
						{
							OFFSET 0.000000 0.000000 0.000000
						}
					}
				}
				JOINT LeftShoulder
				{
					OFFSET 0.078845 0.121749 -0.034090
					CHANNELS 3 Zrotation Yrotation Xrotation
					JOINT LeftArm
					{
						OFFSET 0.090977 0.030469 -0.008868
						CHANNELS 3 Zrotation Yrotation Xrotation
						JOINT LeftForeArm
						{
							OFFSET 0.259612 -0.012772 -0.027456
							CHANNELS 3 Zrotation Yrotation Xrotation
							JOINT LeftHand
							{
								OFFSET 0.249234 0.008986 -0.001171
								CHANNELS 3 Zrotation Yrotation Xrotation
								End Site
								{
									OFFSET 0.000000 0.000000 0.000000
								}
							}
						}
					}
				}
				JOINT RightShoulder
				{
					OFFSET -0.081759 0.118833 -0.038615
					CHANNELS 3 Zrotation Yrotation Xrotation
					JOINT RightArm
					{
						OFFSET -0.096012 0.032551 -0.009143
						CHANNELS 3 Zrotation Yrotation Xrotation
						JOINT RightForeArm
						{
							OFFSET -0.253742 -0.013329 -0.021401
							CHANNELS 3 Zrotation Yrotation Xrotation
							JOINT RightHand
							{
								OFFSET -0.255298 0.007772 -0.005559
								CHANNELS 3 Zrotation Yrotation Xrotation
								End Site
								{
									OFFSET 0.000000 0.000000 0.000000
								}
							}
						}
					}
				}
			}
		}
	}
}
MOTION
Frames: 13
Frame Time: 0.050000
0.293601 0.797943 -0.531744 5.086504 -52.823459 3.138051 -2.606318 3.803538 -39.099183 31.000814 -4.577841 65.153529 -11.200881 -37.675676 -18.669575 0.000000 0.000000 0.000000 -18.508061 9.558776 -48.810558 35.493876 -4.278546 64.304422 -23.355815 -50.294967 9.031484 0.000000 0.000000 0.000000 6.221394 3.390282 36.948587 0.300391 0.103267 -28.470976 0.178829 -10.717963 25.522471 -7.805056 1.139984 -46.110363 0.000000 0.000000 0.000000 -17.274661 -1.958423 8.299186 -61.941205 -43.344268 18.014518 152.420378 -36.272242 -67.606631 0.000000 0.000000 0.000000 3.715950 8.259702 -0.687563 63.769189 45.615709 10.193192 -161.372439 39.146194 -140.904989 0.000000 0.000000 0.000000 
0.315899 0.792987 -0.540615 6.335228 -52.277607 2.128544 -3.916029 3.618789 -40.673765 29.895428 -4.467082 63.862208 -9.608632 -35.720076 -21.197851 0.000000 0.000000 0.000000 -19.138706 9.873215 -50.485770 34.590277 -4.259953 64.828251 -21.759267 -48.944117 7.139845 0.000000 0.000000 0.000000 6.244437 3.853886 38.649482 -0.378201 0.275398 -28.686673 -0.640930 -12.212900 26.092904 -8.394938 1.507348 -48.068017 0.000000 0.000000 0.000000 -16.176059 -3.577096 9.019886 -62.332440 -44.827011 19.539848 152.660836 -35.787080 -65.749183 0.000000 0.000000 0.000000 5.462962 8.754815 -1.602517 63.657918 41.936433 9.034644 -161.792664 39.059332 -143.286390 0.000000 0.000000 0.000000 
0.334287 0.799792 -0.548998 6.139359 -51.967304 3.571163 -4.895875 4.099308 -44.002383 30.011806 -5.615998 62.194371 -11.469457 -36.207228 -17.823799 0.000000 0.000000 0.000000 -20.259148 9.922022 -51.704329 34.412743 -4.584889 63.233999 -20.008073 -46.690216 6.296491 0.000000 0.000000 0.000000 6.553362 3.685720 38.674022 -0.980898 0.402210 -28.782048 -1.524274 -13.941924 25.686178 -9.820420 1.847736 -48.267099 0.000000 0.000000 0.000000 -14.788933 -2.730154 8.253017 -62.914730 -45.762203 21.307590 151.998808 -36.149255 -64.122992 0.000000 0.000000 0.000000 6.200922 9.390874 -2.134687 64.055901 38.269305 7.556395 -160.210595 40.180919 -142.946533 0.000000 0.000000 0.000000 
0.343925 0.820055 -0.555547 6.327439 -51.610652 4.816917 -4.093023 4.778362 -45.156025 25.724799 -3.730045 59.770178 -13.266222 -33.515743 -12.211404 0.000000 0.000000 0.000000 -21.949255 9.179241 -50.684399 33.860567 -4.177855 58.744821 -18.527066 -43.620082 7.627610 0.000000 0.000000 0.000000 4.765680 3.693306 36.850604 -1.062521 0.341300 -28.184182 -0.338717 -14.345555 25.859288 -11.783471 2.465223 -48.246628 0.000000 0.000000 0.000000 -14.996668 -1.570332 7.907291 -65.312985 -47.114300 23.874766 151.332460 -37.255307 -64.004925 0.000000 0.000000 0.000000 3.949017 9.558043 -1.025652 65.578834 36.465370 5.708387 -159.742066 41.149584 -144.285704 0.000000 0.000000 0.000000 
0.347241 0.844604 -0.561012 7.033784 -50.838145 5.287751 -3.649676 5.247525 -46.683494 22.323722 -2.627101 57.810271 -15.841945 -29.717807 -2.188343 0.000000 0.000000 0.000000 -22.716840 8.281396 -48.581747 34.087389 -4.126427 55.257103 -16.139406 -39.721619 6.779930 0.000000 0.000000 0.000000 3.149606 3.134972 33.262336 1.711449 -0.280719 -26.645866 -1.260321 -11.379033 24.459841 -12.415284 2.716579 -44.122035 0.000000 0.000000 0.000000 -17.668647 -0.904160 8.191987 -63.143400 -45.179090 19.838135 155.240455 -41.846936 -79.346368 0.000000 0.000000 0.000000 5.133059 9.319144 -1.290924 64.953082 33.263262 5.012877 -159.821499 43.182228 -146.532600 0.000000 0.000000 0.000000 
0.349273 0.857909 -0.566174 7.736090 -51.874887 4.633095 -1.393891 6.843951 -47.120169 19.469425 -0.569597 59.659012 -14.182676 -26.102777 -1.254072 0.000000 0.000000 0.000000 -22.289369 8.190977 -47.163551 36.528896 -4.656944 55.244817 -19.693926 -43.451547 11.960197 0.000000 0.000000 0.000000 1.645503 3.696575 33.056164 3.511517 -0.486655 -27.155593 -3.066846 -9.756181 24.937653 -9.598468 1.660138 -44.943287 0.000000 0.000000 0.000000 -16.773381 1.150615 6.226876 -65.345483 -43.670952 20.435831 156.478845 -44.655070 -86.210824 0.000000 0.000000 0.000000 2.704876 7.530978 -0.441763 67.962905 34.339737 4.526100 -160.946312 44.457753 -148.297656 0.000000 0.000000 0.000000 
0.353696 0.852892 -0.571618 9.394901 -48.464988 2.970922 -1.410635 6.587679 -49.045528 19.933647 -1.967622 62.742804 -14.278011 -24.335440 2.462495 0.000000 0.000000 0.000000 -22.571938 6.647696 -43.378511 36.075980 -4.883698 53.834197 -17.607666 -40.482433 8.809412 0.000000 0.000000 0.000000 4.862980 2.506555 33.628889 -1.929448 0.418574 -26.549690 -0.455217 -12.134909 22.509673 -8.804810 1.187896 -40.843031 0.000000 0.000000 0.000000 -19.747887 -1.105083 8.735664 -62.970085 -43.744866 18.366856 156.045505 -43.307156 -85.580083 0.000000 0.000000 0.000000 -0.653053 5.777694 0.740731 69.111594 36.610245 4.645672 -163.146491 43.579831 -151.035867 0.000000 0.000000 0.000000 
0.360252 0.830894 -0.576497 10.025040 -45.834060 0.589689 -0.948496 5.629784 -47.215357 19.851571 -2.112736 62.956730 -14.304709 -25.013505 1.865912 0.000000 0.000000 0.000000 -20.809789 5.642635 -39.307457 36.131844 -4.990783 55.079715 -19.484054 -44.260488 5.252204 0.000000 0.000000 0.000000 5.750225 2.227828 34.670544 -0.819846 0.374786 -28.276950 -2.495017 -11.037027 24.551763 -8.917382 1.409154 -40.939899 0.000000 0.000000 0.000000 -21.729382 -2.748824 10.058617 -62.885422 -44.155157 17.301673 155.637744 -43.896606 -86.316541 0.000000 0.000000 0.000000 -0.379302 7.696036 1.329445 66.298446 38.142909 5.882803 -158.254350 41.065103 -136.960697 0.000000 0.000000 0.000000 
0.370744 0.808367 -0.580630 10.132646 -45.888981 -1.107664 0.049711 5.643522 -45.114368 19.462601 -1.213444 62.746265 -12.766859 -27.736963 -5.655072 0.000000 0.000000 0.000000 -19.604724 5.911651 -39.690571 35.263292 -4.459861 57.336628 -23.700473 -50.550473 6.635920 0.000000 0.000000 0.000000 6.747569 2.396010 36.478784 -2.179251 0.655722 -29.006473 -3.174101 -9.975273 26.078556 -5.954282 0.109926 -39.017735 0.000000 0.000000 0.000000 -22.654460 -3.698054 10.739284 -63.673524 -45.067095 17.741423 148.116834 -43.433182 -73.960076 0.000000 0.000000 0.000000 0.244556 7.973153 1.244222 66.781561 41.490930 7.983344 -156.172724 41.991822 -132.332557 0.000000 0.000000 0.000000 
0.385118 0.794436 -0.583941 10.534156 -43.959306 -2.299336 -0.366623 4.552398 -43.811810 18.069874 -0.972331 60.079429 -9.013709 -24.816860 -12.380078 0.000000 0.000000 0.000000 -21.632913 5.344450 -39.815199 36.103692 -5.759616 57.634269 -23.449546 -51.549368 4.028231 0.000000 0.000000 0.000000 8.992261 1.926358 38.593691 -2.372198 0.502511 -26.434610 -2.613042 -11.340668 23.557053 -5.331108 0.148759 -39.541485 0.000000 0.000000 0.000000 -24.040692 -4.983400 11.919018 -64.382859 -44.386386 17.106611 145.562692 -41.329413 -67.269555 0.000000 0.000000 0.000000 -1.562285 7.783133 1.973794 68.727380 43.241532 9.183734 -156.129773 41.855065 -132.298346 0.000000 0.000000 0.000000 
0.401678 0.792733 -0.586816 10.353416 -45.016693 -2.007916 -0.851685 4.965714 -45.079876 17.393508 -0.723166 58.148473 -8.903631 -24.118929 -12.724437 0.000000 0.000000 0.000000 -21.670846 5.811699 -41.241744 37.140048 -6.152538 58.638483 -23.083418 -51.734429 3.597829 0.000000 0.000000 0.000000 9.699297 2.143992 40.041211 -1.273190 0.375133 -27.962916 -3.443498 -11.764922 25.181808 -6.910492 0.795088 -41.723816 0.000000 0.000000 0.000000 -24.133832 -2.692930 10.861387 -66.719796 -43.421723 17.345795 144.813490 -42.282095 -65.881883 0.000000 0.000000 0.000000 -1.383790 7.494217 1.726040 70.123220 43.851420 9.500073 -153.965511 42.496261 -129.054340 0.000000 0.000000 0.000000 
0.419167 0.797410 -0.588897 10.759560 -46.538646 -1.523670 -2.071375 5.572150 -47.834676 17.678665 -1.099073 57.650929 -10.578527 -25.451323 -10.099437 0.000000 0.000000 0.000000 -23.140707 6.159118 -42.559739 37.502682 -6.066620 57.679362 -20.536226 -48.368790 2.272201 0.000000 0.000000 0.000000 9.718592 2.463234 40.572739 -0.147026 0.219162 -28.697600 -3.897798 -12.125753 25.048689 -4.993806 -0.048065 -42.383559 0.000000 0.000000 0.000000 -22.601061 -1.019671 9.503628 -68.240368 -42.956077 18.411728 144.231233 -41.477336 -62.692405 0.000000 0.000000 0.000000 -2.397074 6.342465 1.768464 71.877719 43.953989 9.131848 -155.515206 43.080148 -132.845113 0.000000 0.000000 0.000000 
0.436952 0.799837 -0.589864 12.009521 -49.222877 -1.962800 -2.919719 6.796852 -50.477110 19.187276 -1.859903 57.941596 -11.419662 -24.667638 -7.356126 0.000000 0.000000 0.000000 -24.780134 6.675237 -43.555363 37.809845 -5.465103 56.633533 -20.592531 -48.237114 3.493470 0.000000 0.000000 0.000000 8.916946 3.127322 40.424421 1.156296 0.004935 -28.843393 -3.796380 -12.661869 24.749928 -7.255691 0.740778 -43.543038 0.000000 0.000000 0.000000 -22.045036 0.649364 8.793666 -66.834003 -42.744855 17.883896 143.949145 -40.451432 -59.545482 0.000000 0.000000 0.000000 -3.316018 5.534398 1.867186 71.278126 43.382057 7.788329 -155.532806 42.401471 -132.970568 0.000000 0.000000 0.000000 
